<svg width="94" height="68" viewBox="0 0 94 68" fill="none" xmlns="http://www.w3.org/2000/svg">
<path d="M25.6 47.2C27.9858 47.2 29.92 45.2659 29.92 42.88C29.92 40.4941 27.9858 38.56 25.6 38.56C23.2141 38.56 21.28 40.4941 21.28 42.88C21.28 45.2659 23.2141 47.2 25.6 47.2Z" fill="black" stroke="black" stroke-width="6.48" stroke-linecap="round" stroke-linejoin="round"/>
<path d="M4 21.28V6.592C4 5.16048 5.16048 4 6.592 4H87.808C89.2396 4 90.4 5.16048 90.4 6.592V21.28M4 21.28V61.888C4 63.3196 5.16048 64.48 6.592 64.48H87.808C89.2396 64.48 90.4 63.3196 90.4 61.888V21.28M4 21.28H90.4" stroke="black" stroke-width="6.48" stroke-linecap="round" stroke-linejoin="round"/>
</svg>
